<?xml version="1.0" encoding="UTF-8" standalone="no"?>
<!DOCTYPE svg PUBLIC "-//W3C//DTD SVG 1.1//EN" "http://www.w3.org/Graphics/SVG/1.1/DTD/svg11.dtd">
<svg version="1.1" xmlns="http://www.w3.org/2000/svg" xmlns:xlink="http://www.w3.org/1999/xlink" preserveAspectRatio="xMidYMid meet" viewBox="0 0 640 640" width="640" height="640"><defs><path d="M237.68 44.23C140.54 44.23 61.79 123.15 61.79 220.5C61.79 317.86 140.54 396.77 237.68 396.77C334.82 396.77 413.57 317.86 413.57 220.5C413.57 123.15 334.82 44.23 237.68 44.23Z" id="e173TmnkcW"></path><path d="M306.28 250.9C302.68 250.9 273.83 250.9 270.22 250.9C265.65 250.9 261.94 247.18 261.94 242.6C261.94 242.21 261.94 239.07 261.94 238.68C261.94 235.13 264.24 232.1 267.55 230.86C302.75 217.59 326.85 159.72 321.96 118.81C317.34 80.21 286.02 49.1 247.47 44.78C244.33 44.43 241.23 44.26 238.16 44.25C238.06 44.25 237.96 44.24 237.87 44.24C190.89 44.14 152.77 82.27 152.77 129.33C152.77 165.95 175.86 219.01 208.23 231.01C211.41 232.19 213.42 235.35 213.42 238.74C213.42 239.12 213.42 242.21 213.42 242.6C213.42 247.18 209.71 250.9 205.14 250.9C201.53 250.9 172.68 250.9 169.08 250.9C129.26 250.9 96.51 281.2 92.53 320.04C124.22 366.37 177.4 396.77 237.68 396.77C297.96 396.77 351.14 366.37 382.83 320.04C378.84 281.2 346.1 250.9 306.28 250.9Z" id="anxVsYnXp"></path><path d="M322.26 122.84C322.16 121.5 322.12 120.12 321.96 118.81C317.34 80.21 286.02 49.1 247.47 44.78C244.33 44.43 241.23 44.26 238.16 44.25C238.06 44.25 237.96 44.24 237.87 44.24C195.9 44.15 161.08 74.6 154.12 114.64C154.12 114.64 154.15 114.64 154.15 114.64C155.24 116.18 156.3 117.73 157.46 119.2C157.88 118.67 158.31 118.15 158.75 117.64C170.88 103.17 191.14 99.82 208.38 107.48C213.63 109.8 219.44 111.1 225.55 111.1C243.39 111.1 258.64 100.04 264.92 84.41C287.46 90.62 308.67 104.51 322.26 122.84Z" id="b1IWId9aN9"></path><path d="M306.28 250.9C304.94 250.9 298.25 250.9 286.2 250.9L237.68 299.52L189.16 250.9C177.11 250.9 170.42 250.9 169.08 250.9C129.26 250.9 96.51 281.2 92.53 320.04C124.22 366.37 177.4 396.77 237.68 396.77C297.96 396.77 351.14 366.37 382.83 320.04C378.84 281.2 346.1 250.9 306.28 250.9Z" id="aGYS9M0QL"></path><path d="M334.72 367.43C334.72 364.93 334.72 352.42 334.72 329.91L322.59 329.91L322.59 374.84C328.05 371.65 332.09 369.17 334.72 367.43Z" id="aQrc7QM28"></path><path d="M152.77 329.91L140.64 329.91C140.64 352.42 140.64 364.93 140.64 367.43C144.58 370.05 148.61 372.54 152.77 374.84C152.77 368.85 152.77 353.88 152.77 329.91Z" id="a3u1oZ6Zs5"></path></defs><g><g><g><use xlink:href="#e173TmnkcW" opacity="1" fill="#e1bc28" fill-opacity="1"></use><g><use xlink:href="#e173TmnkcW" opacity="1" fill-opacity="0" stroke="#090000" stroke-width="2" stroke-opacity="0.97"></use></g></g><g><use xlink:href="#anxVsYnXp" opacity="1" fill="#fbce9d" fill-opacity="1"></use><g><use xlink:href="#anxVsYnXp" opacity="1" fill-opacity="0" stroke="#090000" stroke-width="2" stroke-opacity="0.97"></use></g></g><g><use xlink:href="#b1IWId9aN9" opacity="1" fill="#6b5b4b" fill-opacity="1"></use><g><use xlink:href="#b1IWId9aN9" opacity="1" fill-opacity="0" stroke="#090000" stroke-width="2" stroke-opacity="0.97"></use></g></g><g><use xlink:href="#aGYS9M0QL" opacity="1" fill="#556080" fill-opacity="1"></use><g><use xlink:href="#aGYS9M0QL" opacity="1" fill-opacity="0" stroke="#090000" stroke-width="2" stroke-opacity="0.97"></use></g></g><g><use xlink:href="#aQrc7QM28" opacity="1" fill="#424a60" fill-opacity="1"></use><g><use xlink:href="#aQrc7QM28" opacity="1" fill-opacity="0" stroke="#090000" stroke-width="2" stroke-opacity="0.97"></use></g></g><g><use xlink:href="#a3u1oZ6Zs5" opacity="1" fill="#424a60" fill-opacity="1"></use><g><use xlink:href="#a3u1oZ6Zs5" opacity="1" fill-opacity="0" stroke="#090000" stroke-width="2" stroke-opacity="0.97"></use></g></g></g></g></svg>