<?xml version="1.0" encoding="UTF-8" standalone="no"?>
<!DOCTYPE svg PUBLIC "-//W3C//DTD SVG 1.1//EN" "http://www.w3.org/Graphics/SVG/1.1/DTD/svg11.dtd">
<svg version="1.1" xmlns="http://www.w3.org/2000/svg" xmlns:xlink="http://www.w3.org/1999/xlink" preserveAspectRatio="xMidYMid meet" viewBox="0 0 640 640" width="640" height="640"><defs><path d="M256 168.66C207.76 168.66 168.66 207.76 168.66 256C168.66 304.24 207.76 343.34 256 343.34C304.24 343.34 343.34 304.24 343.34 256C343.34 207.76 304.24 168.66 256 168.66Z" id="d2NoAdaTNe"></path><path d="M290.07 271.06C288.27 271.06 273.95 271.06 272.16 271.06C269.89 271.06 268.05 269.22 268.05 266.95C268.05 266.75 268.05 265.2 268.05 265.01C268.05 263.25 269.19 261.75 270.83 261.13C288.31 254.56 300.28 225.88 297.85 205.61C295.56 186.49 280 171.07 260.86 168.93C259.3 168.76 257.76 168.67 256.24 168.67C256.19 168.67 256.14 168.66 256.09 168.66C232.77 168.61 213.84 187.51 213.84 210.83C213.84 228.97 225.3 255.26 241.38 261.21C242.95 261.79 243.95 263.35 243.95 265.04C243.95 265.23 243.95 266.76 243.95 266.95C243.95 269.22 242.11 271.06 239.84 271.06C238.05 271.06 223.73 271.06 221.94 271.06C202.16 271.06 185.9 286.07 183.92 305.32C199.66 328.27 226.07 343.34 256 343.34C285.93 343.34 312.34 328.27 328.08 305.32C326.1 286.07 309.84 271.06 290.07 271.06Z" id="auFShvoj"></path><path d="M298 207.61C297.95 206.94 297.93 206.26 297.85 205.61C295.56 186.49 280 171.07 260.86 168.93C259.3 168.76 257.76 168.67 256.24 168.67C256.19 168.67 256.14 168.66 256.09 168.66C235.25 168.62 217.97 183.71 214.51 203.55C214.51 203.55 214.52 203.55 214.52 203.55C215.06 204.31 215.59 205.08 216.16 205.81C216.38 205.55 216.59 205.29 216.81 205.03C222.83 197.86 232.89 196.2 241.45 200C244.06 201.15 246.94 201.79 249.98 201.79C258.84 201.79 266.41 196.31 269.53 188.57C280.72 191.64 291.25 198.53 298 207.61Z" id="f19LVwbjFB"></path><path d="M290.07 271.06C289.4 271.06 286.08 271.06 280.09 271.06L256 295.15L231.91 271.06C225.92 271.06 222.6 271.06 221.94 271.06C202.16 271.06 185.9 286.07 183.92 305.32C199.66 328.27 226.07 343.34 256 343.34C285.93 343.34 312.34 328.27 328.08 305.32C326.1 286.07 309.84 271.06 290.07 271.06Z" id="b3ZXCPuPX3"></path><path d="M304.19 328.8C304.19 327.56 304.19 321.36 304.19 310.21L298.16 310.21L298.16 332.47C300.87 330.89 302.88 329.66 304.19 328.8Z" id="b2R65vGwSD"></path><path d="M213.84 310.21L207.81 310.21C207.81 321.36 207.81 327.56 207.81 328.8C209.77 330.1 211.77 331.33 213.84 332.47C213.84 329.5 213.84 322.08 213.84 310.21Z" id="bsSdRSF1v"></path></defs><g><g><g><use xlink:href="#d2NoAdaTNe" opacity="1" fill="#ffe800" fill-opacity="1"></use><g><use xlink:href="#d2NoAdaTNe" opacity="1" fill-opacity="0" stroke="#090000" stroke-width="2" stroke-opacity="0.97"></use></g></g><g><use xlink:href="#auFShvoj" opacity="1" fill="#fbce9d" fill-opacity="1"></use><g><use xlink:href="#auFShvoj" opacity="1" fill-opacity="0" stroke="#090000" stroke-width="2" stroke-opacity="0.97"></use></g></g><g><use xlink:href="#f19LVwbjFB" opacity="1" fill="#6b5b4b" fill-opacity="1"></use><g><use xlink:href="#f19LVwbjFB" opacity="1" fill-opacity="0" stroke="#090000" stroke-width="2" stroke-opacity="0.97"></use></g></g><g><use xlink:href="#b3ZXCPuPX3" opacity="1" fill="#556080" fill-opacity="1"></use><g><use xlink:href="#b3ZXCPuPX3" opacity="1" fill-opacity="0" stroke="#090000" stroke-width="2" stroke-opacity="0.97"></use></g></g><g><use xlink:href="#b2R65vGwSD" opacity="1" fill="#424a60" fill-opacity="1"></use><g><use xlink:href="#b2R65vGwSD" opacity="1" fill-opacity="0" stroke="#090000" stroke-width="2" stroke-opacity="0.97"></use></g></g><g><use xlink:href="#bsSdRSF1v" opacity="1" fill="#424a60" fill-opacity="1"></use><g><use xlink:href="#bsSdRSF1v" opacity="1" fill-opacity="0" stroke="#090000" stroke-width="2" stroke-opacity="0.97"></use></g></g></g></g></svg>